<svg width="100" height="98" viewBox="0 0 100 98" fill="none" xmlns="http://www.w3.org/2000/svg">
<g clip-path="url(#clip0_276_1058)">
<path fill-rule="evenodd" clip-rule="evenodd" d="M45.8702 24.4943C40.0815 25.8621 34.7187 28.6345 30.2557 32.5666C25.7926 36.4987 22.3666 41.4694 20.2803 47.0396C21.692 34.0603 30.668 22.8087 43.6157 19.5849C48.8151 18.3117 54.2569 18.4197 59.4017 19.8981C64.5464 21.3764 69.2154 24.1739 72.9457 28.0131C64.7161 23.38 55.0106 22.1187 45.8702 24.4943V24.4943Z" fill="#FFD74B"/>
<path d="M85.7986 58.4492C86.6285 55.5409 87.0851 52.5389 87.1576 49.5154L93.4787 46.3548L100.053 43.0046L92.8887 41.2979L86.0514 39.665C85.2962 36.7219 84.163 33.8889 82.6802 31.2368L86.4939 25.4109L90.5078 19.3005L83.3965 21.3338L76.6119 23.2722C74.4467 21.1256 72.0225 19.257 69.3953 17.7096L69.7429 10.8091L70.1117 3.5925L64.9705 8.86009L60.0506 13.78C57.0685 12.9892 54.0013 12.5647 50.9166 12.5158L47.756 6.40539L44.3005 0L42.4989 7.02697L40.7712 13.6957C37.777 14.4639 34.8895 15.5998 32.1745 17.0775L26.2642 13.3797L20.0169 9.53435L22.1239 16.477L24.0518 23.1037C21.8472 25.2239 19.9182 27.6131 18.3102 30.2149L11.2621 29.9305L3.88748 29.6249L9.15508 34.6186L14.212 39.3805C13.3803 42.2956 12.9236 45.3049 12.8529 48.3354L6.58449 51.496L0 54.8883L7.16393 56.595L13.9907 58.228C14.7542 61.17 15.8907 64.0023 17.3725 66.6561L13.5588 72.4821L9.55541 78.5925L16.6561 76.5487L23.4408 74.6102C25.6058 76.7601 28.0299 78.6322 30.6574 80.1833L30.3097 87.0839L29.941 94.3005L35.0822 89.0329L40.0337 84.0497C42.9967 84.8486 46.0467 85.2803 49.115 85.335L52.3283 91.456L55.6995 97.8614L57.5116 90.8344L59.2288 84.134C62.2187 83.363 65.1024 82.2272 67.815 80.7522L73.7463 84.4185L79.9515 88.2954L77.9604 81.3527L76.0324 74.7261C78.2346 72.6036 80.1634 70.2148 81.7741 67.6148L88.8222 67.8993L96.1968 68.2048L90.9292 63.2111L85.7986 58.4492ZM50 81.1209C43.6121 81.1962 37.346 79.3705 31.9982 75.8761C26.6503 72.3816 22.462 67.3762 19.9657 61.4957C17.4693 55.6153 16.7776 49.1255 17.9784 42.851C19.1791 36.5765 22.2182 30.8007 26.7094 26.2575C31.2005 21.7144 36.941 18.609 43.2012 17.336C49.4615 16.0631 55.9588 16.68 61.8676 19.1085C67.7764 21.537 72.8297 25.6673 76.3855 30.9746C79.9413 36.2819 81.839 42.5265 81.8373 48.9149C81.8623 53.1202 81.0585 57.2893 79.4719 61.184C77.8853 65.0786 75.547 68.6226 72.5905 71.6133C69.634 74.6041 66.1172 76.9831 62.2411 78.6144C58.3649 80.2458 54.2054 81.0975 50 81.1209V81.1209Z" fill="#F3712D"/>
<path d="M49.9999 16.6983C43.6125 16.6231 37.3469 18.4484 31.9992 21.9424C26.6516 25.4364 22.4633 30.4413 19.9666 36.3211C17.47 42.2008 16.7776 48.6901 17.9776 54.9643C19.1775 61.2385 22.2155 67.0144 26.7056 71.5579C31.1957 76.1015 36.9352 79.2078 43.1947 80.4819C49.4543 81.756 55.9513 81.1406 61.8602 78.7137C67.7692 76.2868 72.8233 72.1582 76.3803 66.8523C79.9374 61.5464 81.8368 55.3028 81.8373 48.9149C81.8636 44.7086 81.0609 40.5384 79.4749 36.6425C77.8889 32.7467 75.5508 29.2015 72.5942 26.2096C69.6375 23.2177 66.1203 20.8378 62.2434 19.2058C58.3666 17.5738 54.2062 16.7217 49.9999 16.6983V16.6983ZM45.8701 24.4943C40.0814 25.8621 34.7186 28.6345 30.2556 32.5666C25.7925 36.4987 22.3665 41.4694 20.2802 47.0396C21.6919 34.0603 30.6679 22.8087 43.6156 19.5849C48.815 18.3117 54.2568 18.4196 59.4016 19.898C64.5463 21.3764 69.2153 24.1739 72.9456 28.0131C64.716 23.38 55.0105 22.1187 45.8701 24.4943V24.4943Z" fill="#FFC82C"/>
</g>
<defs>
<clipPath id="clip0_276_1058">
<rect width="100" height="97.8298" fill="white"/>
</clipPath>
</defs>
</svg>
